<?xml version="1.0" encoding="UTF-8" standalone="no"?>
<!--
Lucie Lenfant - OpenGoPaste - 2019.
Copyleft: cette œuvre est libre, vous pouvez la copier, la diffuser et la modifier selon les termes de la Licence Art Libre http://www.artlibre.org
-->
<svg
   xmlns:svg="http://www.w3.org/2000/svg"
   xmlns="http://www.w3.org/2000/svg"
   version="1.1"
   id="Calque_1"
   x="0px"
   y="0px"
   viewBox="0 0 566.93 566.93"
   style="enable-background:new 0 0 566.93 566.93; shape-rendering:geometricPrecision;"
   xml:space="preserve"><defs
   id="defs1024" />
<style
   type="text/css"
   id="style978">
	.st0{fill:#662D91;}
	.st1{fill:#FFFFFF;}
	.st2{fill:#E5DF05;}
</style>
<g
   id="g1021">
	<circle
   class="st0"
   cx="283.39"
   cy="283.09"
   r="276.38"
   id="circle983" />
	<g
   id="g1019">
		<g
   id="g993">
			<path
   class="st1"
   d="M67.12,195.81c-3.1-3.03-4.65-6.71-4.65-11.06c0-4.5,1.55-8.26,4.65-11.29c3.1-3.03,6.83-4.54,11.17-4.54     c4.5,0,8.26,1.51,11.29,4.54c3.02,3.02,4.54,6.79,4.54,11.29c0,4.35-1.56,8.03-4.66,11.06c-3.1,3.02-6.83,4.54-11.17,4.54     C73.95,200.35,70.23,198.83,67.12,195.81z M127.65,195.81c-3.11-3.03-4.65-6.71-4.65-11.06c0-4.5,1.55-8.26,4.65-11.29     c3.1-3.03,6.83-4.54,11.17-4.54c4.5,0,8.26,1.51,11.29,4.54c3.03,3.02,4.54,6.79,4.54,11.29c0,4.35-1.55,8.03-4.65,11.06     c-3.11,3.02-6.83,4.54-11.17,4.54C134.48,200.35,130.75,198.83,127.65,195.81z"
   id="path985" />
			<path
   class="st1"
   d="M184.1,195.81c-3.03-3.03-4.54-6.71-4.54-11.06c0-4.34,1.51-8.06,4.54-11.17c3.02-3.1,6.71-4.65,11.05-4.65     c4.5,0,8.26,1.51,11.29,4.54c3.02,3.02,4.54,6.79,4.54,11.29c0,4.35-1.56,8.03-4.66,11.06c-3.1,3.02-6.83,4.54-11.17,4.54     C190.81,200.35,187.13,198.83,184.1,195.81z M184.1,256.22c-3.03-3.1-4.54-6.83-4.54-11.17c0-4.34,1.51-8.07,4.54-11.17     c3.02-3.1,6.71-4.65,11.05-4.65c4.34,0,8.07,1.55,11.17,4.65c3.1,3.1,4.66,6.83,4.66,11.17c0,4.35-1.56,8.07-4.66,11.17     c-3.1,3.11-6.83,4.65-11.17,4.65C190.81,260.87,187.13,259.33,184.1,256.22z M244.51,256.22c-3.11-3.1-4.65-6.83-4.65-11.17     c0-4.34,1.55-8.07,4.65-11.17c3.1-3.1,6.83-4.65,11.17-4.65c4.34,0,8.03,1.55,11.05,4.65c3.03,3.1,4.54,6.83,4.54,11.17     c0,4.35-1.51,8.07-4.54,11.17c-3.02,3.11-6.71,4.65-11.05,4.65C251.34,260.87,247.62,259.33,244.51,256.22z"
   id="path987" />
			<path
   class="st1"
   d="M298.64,195.81c-3.03-3.03-4.54-6.71-4.54-11.06c0-4.34,1.51-8.06,4.54-11.17c3.02-3.1,6.71-4.65,11.05-4.65     c4.5,0,8.26,1.51,11.29,4.54c3.02,3.02,4.54,6.79,4.54,11.29c0,4.35-1.56,8.03-4.66,11.06c-3.1,3.02-6.83,4.54-11.17,4.54     C305.34,200.35,301.66,198.83,298.64,195.81z M321.33,294.4c3.1,3.11,4.65,6.83,4.65,11.18c0,4.34-1.55,8.07-4.65,11.17     c-3.1,3.1-6.83,4.65-11.17,4.65c-4.35,0-8.07-1.55-11.17-4.65c-3.1-3.1-4.65-6.83-4.65-11.17c0-4.35,1.55-8.07,4.65-11.18     c3.1-3.1,6.83-4.65,11.17-4.65C314.5,289.74,318.23,291.3,321.33,294.4z M385.11,294.4c3.1,3.11,4.66,6.83,4.66,11.18     c0,4.34-1.56,8.07-4.66,11.17c-3.1,3.1-6.83,4.65-11.17,4.65s-8.02-1.55-11.06-4.65c-3.02-3.1-4.54-6.83-4.54-11.17     c0-4.35,1.51-8.07,4.54-11.18c3.03-3.1,6.72-4.65,11.06-4.65S382.01,291.3,385.11,294.4z"
   id="path989" />
			<path
   class="st1"
   d="M417.24,256.22c-3.1-3.1-4.66-6.83-4.66-11.17c0-4.34,1.56-8.07,4.66-11.17s6.83-4.65,11.17-4.65     c4.34,0,8.04,1.55,11.06,4.65s4.54,6.83,4.54,11.17c0,4.35-1.51,8.07-4.54,11.17c-3.02,3.11-6.72,4.65-11.06,4.65     C424.07,260.87,420.34,259.33,417.24,256.22z M439.94,294.4c3.02,3.11,4.54,6.83,4.54,11.18c0,4.34-1.51,8.07-4.54,11.17     s-6.72,4.65-11.06,4.65c-4.34,0-8.07-1.55-11.17-4.65c-3.1-3.1-4.66-6.83-4.66-11.17c0-4.35,1.56-8.07,4.66-11.18     c3.1-3.1,6.83-4.65,11.17-4.65C433.22,289.74,436.91,291.3,439.94,294.4z M477.53,195.81c-3.1-3.03-4.65-6.71-4.65-11.06     c0-4.5,1.55-8.26,4.65-11.29c3.1-3.03,6.83-4.54,11.17-4.54c4.35,0,8.04,1.55,11.06,4.65c3.02,3.11,4.55,6.83,4.55,11.17     c0,4.35-1.52,8.03-4.55,11.06c-3.02,3.02-6.71,4.54-11.06,4.54C484.36,200.35,480.63,198.83,477.53,195.81z M477.53,256.22     c-3.1-3.1-4.65-6.83-4.65-11.17c0-4.34,1.55-8.07,4.65-11.17c3.1-3.1,6.83-4.65,11.17-4.65c4.35,0,8.04,1.55,11.06,4.65     s4.55,6.83,4.55,11.17c0,4.35-1.52,8.07-4.55,11.17c-3.02,3.11-6.71,4.65-11.06,4.65C484.36,260.87,480.63,259.33,477.53,256.22z     "
   id="path991" />
		</g>
		<g
   id="g1017">
			<path
   class="st2"
   d="M99.05,351.78c4.93,4.93,7.8,11.39,7.8,18.83c0,7.45-2.87,13.9-7.8,18.83c-4.93,4.93-11.39,7.8-18.83,7.8     c-7.45,0-13.9-2.87-18.83-7.8c-4.93-4.93-7.8-11.39-7.8-18.83c0-7.45,2.87-13.9,7.8-18.83c4.93-4.93,11.39-7.8,18.83-7.8     C87.66,343.98,94.12,346.85,99.05,351.78z M80.22,353.13c-4.75,0-9.06,1.97-12.29,5.2s-5.2,7.54-5.2,12.29     c0,4.93,1.97,9.15,5.2,12.38c3.14,3.14,7.54,5.12,12.29,5.12c4.93,0,9.15-1.89,12.38-5.12c3.23-3.23,5.11-7.45,5.11-12.38     c0-4.75-1.97-9.14-5.11-12.29C89.37,355.1,85.15,353.13,80.22,353.13z"
   id="path995" />
			<path
   class="st2"
   d="M119.82,345.59v0.09h4.3c4.58,0,8.7,1.71,11.75,4.84c3.05,3.23,4.93,7.18,4.93,11.75     c0,4.57-1.79,8.61-4.93,11.75c-3.14,3.14-7.18,4.93-11.75,4.93h-4.3v17.13h-9.15v-50.5H119.82z M110.67,345.59h9.15H110.67z      M119.82,354.83v14.88h4.3c2.06,0,3.86-0.72,5.29-2.15c1.44-1.44,2.15-3.23,2.15-5.29c0-1.98-0.72-3.77-2.15-5.3     c-1.43-1.43-3.23-2.15-5.29-2.15H119.82z"
   id="path997" />
			<path
   class="st2"
   d="M152.89,366.49h13.63v9.15h-13.63v11.21h18.29v9.24h-27.45V345.5h27.45v9.15h-18.29V366.49z M152.89,354.65     v11.84V354.65z"
   id="path999" />
			<path
   class="st2"
   d="M211.61,345.68v39.02v11.21l-7.98-8.34l-18.93-19.47v27.72h-9.15V356.9v-11.21l7.99,8.34l18.92,19.46v-27.8     H211.61z M202.46,345.68h9.15H202.46z"
   id="path1001" />
			<path
   class="st2"
   d="M241.72,370.35h27.8v0.09c0,7.45-2.42,13.9-7.35,18.83c-5.02,5.02-11.84,7.98-19.37,7.98     c-7.45,0-13.99-2.78-18.83-7.8c-4.85-4.93-7.8-11.39-7.8-18.83c0-7.45,2.96-13.9,7.8-18.83c4.84-5.02,11.57-7.8,18.83-7.8     c4.39,0,8.52,0.99,12.11,2.87c3.86,1.97,7.09,4.67,9.51,8.16l-7.45,5.38c-1.61-2.24-3.68-3.94-6.19-5.29     c-2.51-1.35-5.2-1.97-7.98-1.97c-4.76,0-9.15,1.97-12.29,5.2c-3.14,3.14-5.12,7.54-5.12,12.29c0,4.93,1.97,9.15,5.12,12.38     c3.14,3.14,7.53,5.12,12.29,5.12c5.02,0,9.59-2.06,12.82-5.3c0.99-0.98,1.8-2.06,2.51-3.14l-16.41-0.18V370.35z M241.72,370.35     v9.15V370.35z"
   id="path1003" />
			<path
   class="st2"
   d="M319.18,351.78c4.93,4.93,7.8,11.39,7.8,18.83c0,7.45-2.86,13.9-7.8,18.83c-4.93,4.93-11.4,7.8-18.83,7.8     c-7.45,0-13.91-2.87-18.85-7.8c-4.92-4.93-7.8-11.39-7.8-18.83c0-7.45,2.88-13.9,7.8-18.83c4.93-4.93,11.4-7.8,18.85-7.8     C307.78,343.98,314.25,346.85,319.18,351.78z M300.34,353.13c-4.76,0-9.06,1.97-12.29,5.2c-3.24,3.23-5.21,7.54-5.21,12.29     c0,4.93,1.97,9.15,5.21,12.38c3.14,3.14,7.52,5.12,12.29,5.12c4.92,0,9.14-1.89,12.37-5.12c3.23-3.23,5.12-7.45,5.12-12.38     c0-4.75-1.97-9.14-5.12-12.29C309.48,355.1,305.27,353.13,300.34,353.13z"
   id="path1005" />
			<path
   class="st1"
   d="M340.47,345.59v0.09h4.31c4.57,0,8.7,1.71,11.74,4.84c3.06,3.23,4.93,7.18,4.93,11.75     c0,4.57-1.8,8.61-4.93,11.75s-7.17,4.93-11.74,4.93h-4.31v17.13h-9.15v-50.5H340.47z M331.32,345.59h9.15H331.32z M340.47,354.83     v14.88h4.31c2.06,0,3.85-0.72,5.29-2.15c1.43-1.44,2.16-3.23,2.16-5.29c0-1.98-0.73-3.77-2.16-5.3     c-1.43-1.43-3.23-2.15-5.29-2.15H340.47z"
   id="path1007" />
			<path
   class="st1"
   d="M398.58,384.61h-17.77l-5.38,11.48h-10.05l19.82-41.98l4.13-8.7l4.22,8.61l20.71,42.06h-10.04L398.58,384.61     z M384.94,376h9.33l-4.75-9.78L384.94,376z M389.52,366.22l-4.58,9.78L389.52,366.22z"
   id="path1009" />
			<path
   class="st1"
   d="M439.79,357.88c-0.64-1.07-1.52-1.79-2.6-2.42c-1.43-0.63-2.78-0.9-4.13-0.72     c-1.17,0.18-2.16,0.72-2.97,1.52s-1.25,1.8-1.34,2.96c-0.09,0.81,0,1.61,0.36,2.24c0.26,0.63,0.81,1.34,1.61,2.06     c0.63,0.45,1.34,0.81,1.97,1.08c0.99,0.36,1.8,0.63,2.78,0.9c1.25,0.36,2.51,0.63,3.76,1.17c1.44,0.54,2.88,1.35,4.22,2.51     c2.07,1.61,3.59,3.5,4.58,5.74c1.07,2.42,1.43,4.66,1.25,7.08c-0.35,3.5-1.71,6.55-4.13,9.15c-2.24,2.42-5.29,4.04-8.97,4.48     c-3.23,0.45-6.73,0-9.87-1.52c-2.86-1.35-5.56-3.59-7.17-6.73c-0.55-0.98-0.81-1.71-1.17-2.69c-0.26-0.81-0.44-1.8-0.63-2.96     l9.06-1.26c0.09,0.63,0.27,1.08,0.36,1.35c0.08,0.27,0.17,0.72,0.44,1.17c0.81,1.35,1.8,2.33,3.05,2.87     c1.52,0.72,3.23,0.99,4.75,0.72c1.44-0.27,2.51-0.81,3.5-1.79c0.9-0.9,1.43-2.06,1.61-3.5c0-0.98-0.09-1.79-0.44-2.6     c-0.36-0.81-0.9-1.71-1.98-2.34c-0.53-0.63-1.25-0.9-1.89-1.17c-0.98-0.36-1.78-0.63-2.77-0.9c-1.35-0.27-2.6-0.72-3.77-1.17     c-1.52-0.54-2.86-1.43-4.3-2.51c-1.98-1.61-3.23-3.32-4.22-5.38c-0.99-2.24-1.43-4.48-1.26-6.72c0.27-3.14,1.71-6.19,3.96-8.61     c2.15-2.15,4.93-3.77,8.42-4.22c3.14-0.45,6.38,0.09,9.24,1.44c2.78,1.34,5.02,3.4,6.73,6.37L439.79,357.88z M439.79,357.88     l8.07-4.39L439.79,357.88z"
   id="path1011" />
			<path
   class="st1"
   d="M453.2,345.59h28.52v9.15h-9.87v41.35h-9.15v-41.35h-9.5V345.59z M453.2,345.59v9.15V345.59z"
   id="path1013" />
			<path
   class="st1"
   d="M494.9,366.49h13.63v9.15H494.9v11.21h18.3v9.24h-27.45V345.5h27.45v9.15h-18.3V366.49z M494.9,354.65v11.84     V354.65z"
   id="path1015" />
		</g>
	</g>
</g>
</svg>
