<?xml version="1.0" encoding="UTF-8" standalone="no"?>
<!--
Lucie Lenfant - OpenGoPaste - 2019.
Œuvre dérivée d'une création originale d'harrypopof <http://hpfteam.free.fr/graphisme-libre/>,
modifié par Simon Leblanc et enfin repris par Lucie Lenfant.
Copyleft: cette œuvre est libre, vous pouvez la copier, la diffuser et la modifier selon les termes de la Licence Art Libre http://www.artlibre.org
-->
<svg
   xmlns:svg="http://www.w3.org/2000/svg"
   xmlns="http://www.w3.org/2000/svg"
   xmlns:xlink="http://www.w3.org/1999/xlink"
   xml:space="preserve"
   style="enable-background:new 0 0 566.93 566.93;shape-rendering:geometricPrecision"
   viewBox="0 0 566.93 566.93"
   y="0px"
   x="0px"
   id="Calque_1"
   version="1.1"><defs
   id="defs1013" />
<style
   id="style934"
   type="text/css">
	.st0{fill:#666666;}
	.st1{fill:#000266;}
	.st2{fill:#031F37;}
	.st3{fill:#E5DF05;stroke:#E5DF05;stroke-width:2.177;}
	.st4{fill:#CCCCCC;}
	.st5{fill:#FFFFFF;stroke:#FFFFFF;stroke-width:2.2838;}
	.st6{opacity:0.5;fill:#FFFFFF;enable-background:new    ;}
	.st7{fill:none;stroke:#FFFFFF;stroke-width:2.2381;stroke-linecap:round;stroke-linejoin:round;}
	.st8{fill:none;stroke:#FFFFFF;stroke-width:2.2381;stroke-linecap:round;}
	.st9{fill:#E5DF05;}
	.st10{fill:#DCDE00;stroke:#DBDD00;stroke-width:2.2261;}
	.st11{clip-path:url(#SVGID_2_);fill:#CCCCCC;}
	.st12{fill:#18557F;}
</style>


<g
   id="g1010">
	<path
   d="M384,311.12c0,55.89-45,101.26-100.44,101.26c-27.72,0-52.83-11.34-71.01-29.67   c-18.18-18.33-29.43-43.64-29.43-71.59c0-27.95,37.36-53.26,55.54-71.59c18.18-18.33,17.18-29.67,44.9-29.67   c27.72,0,22.54,11.34,40.72,29.67C342.46,257.86,384,283.17,384,311.12z"
   class="st0"
   id="path2168_1_" />
	<g
   id="g948">
		<path
   id="path940"
   d="M385.95,280.7c0,0,52.32,3.53,48.83,13.97C431.29,305.12,400.6,340,400.6,340l-49.53,4.19L385.95,280.7z"
   class="st1" />
		<path
   id="path942"
   d="M185.04,280.7c0,0-52.32,3.53-48.83,13.97c3.49,10.44,34.18,45.33,34.18,45.33l49.53,4.19L185.04,280.7z"
   class="st1" />
		<path
   id="path944"
   d="M359.21,286.75c0,0,65.11,0.23,72.78,11.39c0,0-49.53,53.02-51.62,53.72c-2.09,0.7-63.48,6.98-63.48,6.98    L359.21,286.75z"
   class="st2" />
		<path
   id="path946"
   d="M211.78,286.75c0,0-65.11,0.23-72.78,11.39c0,0,49.53,53.02,51.62,53.72c2.09,0.7,63.48,6.98,63.48,6.98    L211.78,286.75z"
   class="st2" />
	</g>
	<g
   id="g959">
		<path
   d="M192.79,149.06c-9.21-3.8-21.62,1.99-40.2,28.33c-14.87,21.09-65.84,52.16-55.45,70.5    c9.59,16.94,53.64-8.46,79.14-22.9c-12.11,103.04,55.79,118.25,107.25,118.25c51.46,0,118.41-0.98,107.32-118.25    c25.49,14.44,69.55,39.84,79.14,22.9c10.39-18.35-40.58-49.41-55.45-70.5c-18.58-26.34-30.99-32.12-40.2-28.33    c-2.56-2.85-84.01-42.69-87.92-36.96c-0.96-0.02-1.92-0.07-2.88-0.07c-0.31,0-0.61,0-0.91,0    C278.97,105.16,195.61,145.92,192.79,149.06z"
   class="st3"
   id="path8092_1_" />
		<path
   d="M171.6,210.34c-18.83-1.04-61.29,38.92-61.29,38.92s-6.98,6.12,5.35,2.17    s30.31-10.28,43.98-17.98c15.31-8.62,31.47-18.96,13.68-22.86C172.77,210.47,172.2,210.38,171.6,210.34z"
   class="st4"
   id="path10179_1_" />
		<path
   d="M395.11,210.34c18.83-1.04,61.29,38.92,61.29,38.92s6.98,6.12-5.35,2.17    c-12.33-3.95-30.31-10.28-43.98-17.98c-15.31-8.62-31.47-18.96-13.68-22.86C393.93,210.47,394.5,210.38,395.11,210.34z"
   class="st4"
   id="path12124_1_" />
		<path
   d="M264.31,110.13c-10.78,0-69.78,36.32-71.5,38.01c20.32,29.79,55.53,3.73,90.72,3.73    c35.21,0,69.42,26.79,89.76-3.04c-1.44-1.4-55.23-37.56-65.29-37.56c-7.51,0-21.96-104.95-22.93-104.95    C284.76,6.33,272.69,110.13,264.31,110.13z"
   class="st3"
   id="path15226_1_" />
		<path
   d="M382.26,313.84c0,54.39-44.22,98.54-98.7,98.54c-27.24,0-51.92-11.04-69.78-28.87    c-17.86-17.84-28.92-42.47-28.92-69.67c0-27.2,36.71-51.83,54.58-69.67c17.86-17.84,16.88-28.87,44.12-28.87    c27.24,0,22.15,11.04,40.02,28.87C341.44,262,382.26,286.64,382.26,313.84z"
   class="st4"
   id="path20156_1_" />
		<path
   d="M248.95,380.38c0,27.21,109.03-7.14,73.37,14.79    C297.74,410.28,248.95,377.92,248.95,380.38z"
   class="st5"
   id="path12131_1_" />
		<path
   d="M330.73,316.42c0,20.83-20.48,57.14-45.72,57.14c-25.24,0-45.72-37.03-45.72-57.86    s20.48-17.61,45.72-17.61C310.25,298.09,330.73,295.59,330.73,316.42z"
   class="st6"
   id="path4165_1_" />
		<path
   d="M244.26,305.66c0,0,42.08,35.31,80.9-0.98"
   class="st7"
   id="path2171_1_" />
		<path
   d="M285.97,321.39v50.73"
   class="st8"
   id="path2175_1_" />
	</g>
	<g
   id="g983">
		<path
   id="path961"
   d="M87.47,510.85c5.23,5.23,8.28,12.08,8.28,19.98s-3.04,14.75-8.28,19.98s-12.08,8.28-19.98,8.28    s-14.75-3.04-19.98-8.28s-8.28-12.08-8.28-19.98s3.04-14.75,8.28-19.98s12.08-8.28,19.98-8.28S82.24,505.62,87.47,510.85z     M67.49,512.28c-5.04,0-9.61,2.09-13.03,5.52c-3.42,3.42-5.52,7.99-5.52,13.03c0,5.23,2.09,9.71,5.52,13.13    c3.33,3.33,7.99,5.43,13.03,5.43c5.23,0,9.71-2,13.13-5.43c3.42-3.42,5.42-7.9,5.42-13.13c0-5.04-2.09-9.7-5.42-13.03    C77.2,514.37,72.72,512.28,67.49,512.28z"
   class="st1" />
		<path
   id="path963"
   d="M109.5,504.29v0.1h4.56c4.85,0,9.23,1.81,12.47,5.14c3.23,3.42,5.23,7.61,5.23,12.47    c0,4.85-1.9,9.13-5.23,12.46c-3.33,3.33-7.61,5.23-12.47,5.23h-4.56v18.17h-9.71v-53.56H109.5z M99.79,504.29h9.71H99.79z     M109.5,514.09v15.79h4.56c2.19,0,4.09-0.76,5.61-2.28c1.53-1.53,2.28-3.42,2.28-5.61c0-2.1-0.76-4-2.28-5.62    c-1.52-1.52-3.42-2.28-5.61-2.28H109.5z"
   class="st1" />
		<path
   id="path965"
   d="M144.57,526.45h14.46v9.71h-14.46v11.89h19.4v9.8h-29.11v-53.66h29.11v9.71h-19.4V526.45z M144.57,513.89    v12.56V513.89z"
   class="st1" />
		<path
   id="path967"
   d="M206.86,504.38v41.38v11.89l-8.46-8.85l-20.07-20.65v29.4h-9.71v-41.29v-11.89l8.47,8.85l20.07,20.64v-29.49    H206.86z M197.16,504.38h9.71H197.16z"
   class="st1" />
		<path
   id="path969"
   d="M238.8,530.54h29.49v0.1c0,7.9-2.57,14.75-7.8,19.98c-5.32,5.32-12.56,8.46-20.54,8.46    c-7.9,0-14.84-2.95-19.98-8.28c-5.14-5.23-8.28-12.08-8.28-19.98s3.13-14.75,8.28-19.98c5.14-5.33,12.27-8.28,19.98-8.28    c4.66,0,9.04,1.05,12.84,3.04c4.09,2.09,7.52,4.95,10.09,8.66l-7.9,5.71c-1.71-2.38-3.9-4.18-6.56-5.61s-5.52-2.09-8.46-2.09    c-5.05,0-9.71,2.09-13.03,5.52c-3.33,3.33-5.43,7.99-5.43,13.03c0,5.23,2.09,9.71,5.43,13.13c3.33,3.33,7.99,5.43,13.03,5.43    c5.32,0,10.18-2.19,13.6-5.62c1.05-1.04,1.9-2.19,2.66-3.33l-17.41-0.19V530.54z M238.8,530.54v9.71V530.54z"
   class="st9" />
		<path
   id="path971"
   d="M320.96,510.85c5.23,5.23,8.27,12.08,8.27,19.98s-3.04,14.75-8.27,19.98c-5.23,5.23-12.09,8.28-19.98,8.28    c-7.9,0-14.76-3.04-19.99-8.28c-5.22-5.23-8.27-12.08-8.27-19.98s3.05-14.75,8.27-19.98c5.23-5.23,12.09-8.28,19.99-8.28    C308.86,502.57,315.72,505.62,320.96,510.85z M300.98,512.28c-5.05,0-9.61,2.09-13.03,5.52c-3.44,3.42-5.52,7.99-5.52,13.03    c0,5.23,2.09,9.71,5.52,13.13c3.33,3.33,7.98,5.43,13.03,5.43c5.22,0,9.69-2,13.12-5.43c3.42-3.42,5.43-7.9,5.43-13.13    c0-5.04-2.09-9.7-5.43-13.03C310.67,514.37,306.2,512.28,300.98,512.28z"
   class="st9" />
		<path
   id="path973"
   d="M343.54,504.29v0.1h4.57c4.85,0,9.22,1.81,12.45,5.14c3.24,3.42,5.23,7.61,5.23,12.47    c0,4.85-1.9,9.13-5.23,12.46c-3.33,3.33-7.61,5.23-12.45,5.23h-4.57v18.17h-9.71v-53.56H343.54z M333.83,504.29h9.71H333.83z     M343.54,514.09v15.79h4.57c2.18,0,4.09-0.76,5.61-2.28c1.52-1.53,2.29-3.42,2.29-5.61c0-2.1-0.77-4-2.29-5.62    c-1.52-1.52-3.42-2.28-5.61-2.28H343.54z"
   class="st4" />
		<path
   id="path975"
   d="M405.17,545.67h-18.84l-5.7,12.18h-10.66l21.03-44.52l4.38-9.22l4.47,9.13l21.97,44.62h-10.65L405.17,545.67z     M390.7,536.54h9.9l-5.04-10.37L390.7,536.54z M395.56,526.17l-4.86,10.37L395.56,526.17z"
   class="st4" />
		<path
   id="path977"
   d="M448.89,517.32c-0.68-1.14-1.62-1.9-2.76-2.57c-1.52-0.66-2.95-0.95-4.38-0.76    c-1.24,0.19-2.29,0.76-3.15,1.62s-1.33,1.9-1.42,3.14c-0.1,0.86,0,1.71,0.39,2.38c0.28,0.66,0.86,1.42,1.71,2.18    c0.66,0.48,1.42,0.86,2.09,1.15c1.05,0.38,1.9,0.66,2.95,0.95c1.33,0.38,2.66,0.66,3.99,1.24c1.53,0.57,3.05,1.43,4.47,2.66    c2.19,1.71,3.81,3.71,4.86,6.09c1.13,2.57,1.52,4.94,1.33,7.51c-0.37,3.71-1.81,6.94-4.38,9.71c-2.38,2.57-5.61,4.28-9.51,4.76    c-3.42,0.48-7.14,0-10.47-1.62c-3.04-1.43-5.9-3.8-7.61-7.14c-0.58-1.04-0.86-1.81-1.24-2.85c-0.28-0.86-0.47-1.9-0.66-3.14    l9.61-1.33c0.1,0.67,0.29,1.15,0.39,1.43c0.08,0.28,0.18,0.76,0.47,1.24c0.86,1.43,1.9,2.47,3.23,3.04    c1.62,0.76,3.42,1.05,5.04,0.76c1.53-0.28,2.66-0.86,3.71-1.9c0.95-0.95,1.52-2.19,1.71-3.71c0-1.04-0.1-1.9-0.47-2.75    c-0.39-0.86-0.95-1.81-2.1-2.48c-0.57-0.66-1.33-0.95-2-1.24c-1.04-0.38-1.89-0.66-2.94-0.95c-1.43-0.28-2.76-0.76-4-1.24    c-1.62-0.57-3.04-1.52-4.56-2.66c-2.1-1.71-3.42-3.52-4.47-5.71c-1.05-2.38-1.52-4.76-1.34-7.13c0.29-3.33,1.81-6.56,4.2-9.13    c2.28-2.28,5.23-4,8.93-4.47c3.33-0.48,6.76,0.1,9.8,1.53c2.95,1.42,5.33,3.61,7.14,6.75L448.89,517.32z M448.89,517.32l8.56-4.66    L448.89,517.32z"
   class="st4" />
		<path
   id="path979"
   d="M463.11,504.29h30.25v9.71H482.9v43.86h-9.71v-43.86h-10.08V504.29z M463.11,504.29v9.71V504.29z"
   class="st4" />
		<path
   id="path981"
   d="M507.34,526.45h14.46v9.71h-14.46v11.89h19.41v9.8h-29.12v-53.66h29.12v9.71h-19.41V526.45z M507.34,513.89    v12.56V513.89z"
   class="st4" />
	</g>
	<path
   d="M389.16,359.59l-21.42,33.54l6.69-0.58l-11.15,21.98l8.92-2.89l-12.49,27.18l24.09-37.01   l-7.58,2.31l8.48-22.55l-6.69,6.36L389.16,359.59z"
   class="st10"
   id="path7667_2_" />
	<g
   id="g1002">
		<path
   id="path986"
   d="M284.72,205.18H163.28c6.58,31.09,45.24,68.8,73.82,68.8c33.34,0,34.92-27.06,47.62-27.06    c12.7,0,14.29,27.06,47.62,27.06c28.57,0,65.81-33.67,73.81-68.8H284.72z"
   class="st2" />
		<g
   id="g1000">
			<path
   id="path988"
   d="M402.18,160.33c0,0-7.94-75.4-35.72-111.91c-19.68-25.86-37.3-7.14-81.75,15.87     c-44.45-23.02-62.07-41.74-81.75-15.87c-27.78,36.51-35.72,111.91-35.72,111.91c-29.37,3.17-57.94,15.08-57.94,15.08     c30.16,46.83,162.71,54.77,162.71,54.77h12.7h12.7c0,0,132.55-7.94,162.71-54.77C460.12,175.41,431.55,163.51,402.18,160.33z"
   class="st1" />
			<g
   id="g998">
				<defs
   id="defs991"><path
     d="M402.18,160.33c0,0-7.94-75.4-35.72-111.91c-19.68-25.86-37.3-7.14-81.75,15.87       c-44.45-23.02-62.07-41.74-81.75-15.87c-27.78,36.51-35.72,111.91-35.72,111.91c-29.37,3.17-57.94,15.08-57.94,15.08       c30.16,46.83,162.71,54.77,162.71,54.77h12.7h12.7c0,0,132.55-7.94,162.71-54.77C460.12,175.41,431.55,163.51,402.18,160.33z"
     id="SVGID_1_" /></defs>
				<clipPath
   id="SVGID_2_">
					<use
   id="use993"
   style="overflow:visible;"
   xlink:href="#SVGID_1_" />
				</clipPath>
				<path
   id="path996"
   clip-path="url(#SVGID_2_)"
   d="M284.72,139.7c-32.53,0-80.96-4.76-121.44-20.64l3.97,41.27c0,0,35.7,20.64,117.47,20.64      s117.47-20.64,117.47-20.64l3.97-41.27C365.67,134.93,317.25,139.7,284.72,139.7z"
   class="st11" />
			</g>
		</g>
	</g>
	<path
   id="path1004"
   d="M397.11,356.74c0,0,20.23-20.93,28.6-36.28c7.29-13.36,8.87-23.52,9.15-25.94   c-0.56,2.06-5.73,9.79-49.61,21.06c-51.62,13.25-87.9,30.69-99.76,73.25c-11.86-42.55-48.13-59.99-99.76-73.25   c-43.88-11.27-49.05-18.99-49.61-21.06c0.29,2.42,1.87,12.58,9.15,25.94c8.37,15.35,28.6,36.28,28.6,36.28   c-46.74-11.16-78.13,26.51-78.13,26.51c37.67,46.74,189.75,110.22,189.75,110.22s152.08-63.48,189.75-110.22   C475.24,383.25,443.86,345.58,397.11,356.74z"
   class="st1" />
	<path
   id="path1006"
   d="M424.54,302.22c0,0-0.02,0.2-0.06,0.56C424.59,302.41,424.54,302.22,424.54,302.22z"
   class="st12" />
	<path
   id="path1008"
   d="M125.74,302.77c-0.04-0.36-0.06-0.56-0.06-0.56S125.64,302.41,125.74,302.77z"
   class="st12" />
</g>
</svg>
