<?xml version="1.0" encoding="UTF-8" standalone="no"?>
<!--
Lucie Lenfant - OpenGoPaste - 2019.
Copyleft: cette œuvre est libre, vous pouvez la copier, la diffuser et la modifier selon les termes de la Licence Art Libre http://www.artlibre.org
-->
<svg
   xmlns:svg="http://www.w3.org/2000/svg"
   xmlns="http://www.w3.org/2000/svg"
   version="1.1"
   id="Calque_1"
   x="0px"
   y="0px"
   viewBox="0 0 566.93 566.93"
   style="enable-background:new 0 0 566.93 566.93;shape-rendering:geometricPrecision"
   xml:space="preserve"><defs
   id="defs941" />
<style
   type="text/css"
   id="style898">
	.st0{fill:#662D91;}
	.st1{fill:#E5DF05;}
	.st2{fill:#CCCCCC;}
</style>
<g
   id="g936">
	<g
   id="g910">
		<path
   class="st0"
   d="M29.95,179.94c-3.64-3.55-5.45-7.87-5.45-12.96c0-5.27,1.82-9.68,5.45-13.23c3.64-3.55,8-5.32,13.09-5.32    c5.27,0,9.68,1.77,13.23,5.32c3.54,3.54,5.32,7.96,5.32,13.23c0,5.09-1.82,9.41-5.46,12.96c-3.64,3.54-8.01,5.32-13.09,5.32    C37.95,185.26,33.58,183.48,29.95,179.94z M100.87,179.94c-3.64-3.55-5.45-7.87-5.45-12.96c0-5.27,1.81-9.68,5.45-13.23    c3.64-3.55,8-5.32,13.09-5.32c5.27,0,9.68,1.77,13.23,5.32c3.55,3.54,5.32,7.96,5.32,13.23c0,5.09-1.82,9.41-5.45,12.96    c-3.64,3.54-8.01,5.32-13.09,5.32C108.87,185.26,104.51,183.48,100.87,179.94z"
   id="path902" />
		<path
   class="st0"
   d="M167.03,179.94c-3.55-3.55-5.32-7.87-5.32-12.96c0-5.09,1.77-9.45,5.32-13.09c3.54-3.64,7.86-5.45,12.95-5.45    c5.27,0,9.68,1.77,13.23,5.32c3.54,3.54,5.32,7.96,5.32,13.23c0,5.09-1.82,9.41-5.46,12.96c-3.64,3.54-8.01,5.32-13.09,5.32    C174.88,185.26,170.57,183.48,167.03,179.94z M167.03,250.72c-3.55-3.64-5.32-8-5.32-13.09c0-5.09,1.77-9.46,5.32-13.09    c3.54-3.64,7.86-5.45,12.95-5.45c5.09,0,9.46,1.82,13.09,5.45c3.64,3.64,5.46,8.01,5.46,13.09c0,5.09-1.82,9.46-5.46,13.09    c-3.64,3.64-8.01,5.45-13.09,5.45C174.88,256.18,170.57,254.36,167.03,250.72z M237.81,250.72c-3.64-3.64-5.45-8-5.45-13.09    c0-5.09,1.81-9.46,5.45-13.09c3.64-3.64,8-5.45,13.09-5.45c5.09,0,9.41,1.82,12.95,5.45c3.55,3.64,5.32,8.01,5.32,13.09    c0,5.09-1.77,9.46-5.32,13.09c-3.54,3.64-7.87,5.45-12.95,5.45C245.81,256.18,241.45,254.36,237.81,250.72z"
   id="path904" />
		<path
   class="st0"
   d="M301.23,179.94c-3.55-3.55-5.32-7.87-5.32-12.96c0-5.09,1.77-9.45,5.32-13.09c3.54-3.64,7.86-5.45,12.95-5.45    c5.27,0,9.68,1.77,13.23,5.32c3.54,3.54,5.32,7.96,5.32,13.23c0,5.09-1.82,9.41-5.46,12.96c-3.64,3.54-8.01,5.32-13.09,5.32    C309.09,185.26,304.78,183.48,301.23,179.94z M327.83,295.46c3.64,3.64,5.45,8.01,5.45,13.1c0,5.09-1.82,9.46-5.45,13.09    c-3.64,3.64-8.01,5.45-13.09,5.45c-5.09,0-9.46-1.82-13.09-5.45s-5.45-8.01-5.45-13.09c0-5.09,1.82-9.46,5.45-13.1    c3.64-3.63,8-5.45,13.09-5.45C319.82,290,324.19,291.83,327.83,295.46z M402.57,295.46c3.64,3.64,5.46,8.01,5.46,13.1    c0,5.09-1.82,9.46-5.46,13.09c-3.64,3.64-8.01,5.45-13.09,5.45c-5.09,0-9.4-1.82-12.96-5.45c-3.54-3.64-5.31-8.01-5.31-13.09    c0-5.09,1.77-9.46,5.31-13.1c3.56-3.63,7.87-5.45,12.96-5.45C394.56,290,398.93,291.83,402.57,295.46z"
   id="path906" />
		<path
   class="st0"
   d="M440.21,250.72c-3.64-3.64-5.46-8-5.46-13.09c0-5.09,1.82-9.46,5.46-13.09c3.64-3.64,8.01-5.45,13.09-5.45    s9.42,1.82,12.96,5.45c3.54,3.64,5.31,8.01,5.31,13.09c0,5.09-1.77,9.46-5.31,13.09c-3.54,3.64-7.87,5.45-12.96,5.45    S443.85,254.36,440.21,250.72z M466.81,295.46c3.54,3.64,5.31,8.01,5.31,13.1c0,5.09-1.77,9.46-5.31,13.09s-7.87,5.45-12.96,5.45    c-5.09,0-9.46-1.82-13.09-5.45s-5.46-8.01-5.46-13.09c0-5.09,1.82-9.46,5.46-13.1c3.64-3.63,8.01-5.45,13.09-5.45    C458.94,290,463.27,291.83,466.81,295.46z M510.86,179.94c-3.64-3.55-5.45-7.87-5.45-12.96c0-5.27,1.81-9.68,5.45-13.23    c3.64-3.55,8.01-5.32,13.09-5.32c5.1,0,9.42,1.82,12.96,5.45c3.54,3.64,5.33,8.01,5.33,13.09c0,5.09-1.78,9.41-5.33,12.96    c-3.54,3.54-7.86,5.32-12.96,5.32C518.86,185.26,514.49,183.48,510.86,179.94z M510.86,250.72c-3.64-3.64-5.45-8-5.45-13.09    c0-5.09,1.81-9.46,5.45-13.09c3.64-3.64,8.01-5.45,13.09-5.45c5.1,0,9.42,1.82,12.96,5.45c3.54,3.64,5.33,8.01,5.33,13.09    c0,5.09-1.78,9.46-5.33,13.09c-3.54,3.64-7.86,5.45-12.96,5.45C518.86,256.18,514.49,254.36,510.86,250.72z"
   id="path908" />
	</g>
	<g
   id="g934">
		<path
   class="st0"
   d="M67.36,362.7c5.78,5.78,9.14,13.35,9.14,22.07s-3.36,16.29-9.14,22.07c-5.78,5.78-13.35,9.14-22.07,9.14    s-16.29-3.36-22.07-9.14c-5.78-5.78-9.14-13.35-9.14-22.07s3.36-16.29,9.14-22.07c5.78-5.78,13.35-9.14,22.07-9.14    S61.58,356.92,67.36,362.7z M45.29,364.28c-5.57,0-10.62,2.31-14.4,6.09s-6.09,8.83-6.09,14.4c0,5.78,2.31,10.72,6.09,14.51    c3.68,3.68,8.83,5.99,14.4,5.99c5.78,0,10.72-2.21,14.5-5.99c3.78-3.78,5.99-8.72,5.99-14.51c0-5.57-2.31-10.72-5.99-14.4    C56.01,366.59,51.07,364.28,45.29,364.28z"
   id="path912" />
		<path
   class="st0"
   d="M91.69,355.45v0.11h5.04c5.36,0,10.2,2,13.77,5.67c3.57,3.78,5.77,8.41,5.77,13.77    c0,5.35-2.1,10.09-5.77,13.77c-3.68,3.68-8.41,5.78-13.77,5.78h-5.04v20.07H80.97v-59.17H91.69z M80.97,355.45h10.72H80.97z     M91.69,366.28v17.44h5.04c2.42,0,4.52-0.84,6.2-2.52c1.68-1.68,2.52-3.78,2.52-6.2c0-2.32-0.84-4.42-2.52-6.21    c-1.68-1.68-3.78-2.52-6.2-2.52H91.69z"
   id="path914" />
		<path
   class="st0"
   d="M130.45,379.93h15.97v10.72h-15.97v13.14h21.44v10.82h-32.16v-59.28h32.16v10.72h-21.44V379.93z     M130.45,366.06v13.87V366.06z"
   id="path916" />
		<path
   class="st0"
   d="M199.26,355.55v45.72v13.14l-9.35-9.78l-22.18-22.81v32.48h-10.72v-45.61v-13.14l9.36,9.78l22.17,22.8v-32.58    H199.26z M188.54,355.55h10.72H188.54z"
   id="path918" />
		<path
   class="st1"
   d="M234.54,384.46h32.58v0.11c0,8.72-2.84,16.29-8.62,22.07c-5.88,5.88-13.87,9.35-22.7,9.35    c-8.72,0-16.4-3.26-22.07-9.14c-5.68-5.78-9.14-13.35-9.14-22.07s3.46-16.29,9.14-22.07c5.67-5.89,13.55-9.14,22.07-9.14    c5.15,0,9.98,1.16,14.19,3.36c4.52,2.31,8.3,5.47,11.14,9.56l-8.72,6.31c-1.89-2.62-4.31-4.62-7.25-6.2s-6.09-2.31-9.35-2.31    c-5.57,0-10.72,2.31-14.4,6.09c-3.68,3.68-5.99,8.83-5.99,14.4c0,5.78,2.31,10.72,5.99,14.51c3.68,3.68,8.82,5.99,14.4,5.99    c5.88,0,11.24-2.42,15.02-6.21c1.16-1.15,2.1-2.42,2.94-3.68l-19.23-0.21V384.46z M234.54,384.46v10.72V384.46z"
   id="path920" />
		<path
   class="st1"
   d="M325.31,362.7c5.78,5.78,9.14,13.35,9.14,22.07s-3.36,16.29-9.14,22.07c-5.78,5.78-13.36,9.14-22.07,9.14    c-8.72,0-16.3-3.36-22.08-9.14c-5.77-5.78-9.14-13.35-9.14-22.07s3.37-16.29,9.14-22.07c5.78-5.78,13.36-9.14,22.08-9.14    C311.95,353.56,319.53,356.92,325.31,362.7z M303.24,364.28c-5.58,0-10.62,2.31-14.4,6.09c-3.8,3.78-6.1,8.83-6.1,14.4    c0,5.78,2.3,10.72,6.1,14.51c3.68,3.68,8.82,5.99,14.4,5.99c5.77,0,10.71-2.21,14.49-5.99c3.78-3.78,5.99-8.72,5.99-14.51    c0-5.57-2.3-10.72-5.99-14.4C313.94,366.59,309,364.28,303.24,364.28z"
   id="path922" />
		<path
   class="st2"
   d="M350.25,355.45v0.11h5.05c5.35,0,10.19,2,13.76,5.67c3.58,3.78,5.78,8.41,5.78,13.77    c0,5.35-2.1,10.09-5.78,13.77c-3.68,3.68-8.4,5.78-13.76,5.78h-5.05v20.07h-10.72v-59.17H350.25z M339.53,355.45h10.72H339.53z     M350.25,366.28v17.44h5.05c2.41,0,4.52-0.84,6.19-2.52c1.68-1.68,2.53-3.78,2.53-6.2c0-2.32-0.85-4.42-2.53-6.21    c-1.68-1.68-3.78-2.52-6.19-2.52H350.25z"
   id="path924" />
		<path
   class="st2"
   d="M418.34,401.17h-20.82l-6.3,13.45h-11.77l23.23-49.19l4.84-10.19l4.94,10.09l24.27,49.29h-11.76    L418.34,401.17z M402.36,391.08h10.94l-5.57-11.45L402.36,391.08z M407.73,379.62l-5.37,11.45L407.73,379.62z"
   id="path926" />
		<path
   class="st2"
   d="M466.64,369.85c-0.75-1.26-1.78-2.1-3.05-2.84c-1.68-0.73-3.26-1.05-4.83-0.84    c-1.37,0.21-2.53,0.84-3.48,1.78c-0.95,0.95-1.47,2.1-1.57,3.47c-0.11,0.95,0,1.89,0.43,2.63c0.31,0.73,0.95,1.57,1.89,2.41    c0.73,0.53,1.57,0.95,2.3,1.27c1.16,0.42,2.1,0.73,3.26,1.05c1.47,0.42,2.94,0.73,4.41,1.37c1.69,0.63,3.37,1.58,4.94,2.94    c2.42,1.89,4.21,4.1,5.37,6.73c1.25,2.84,1.68,5.46,1.47,8.3c-0.41,4.1-2,7.67-4.83,10.72c-2.62,2.84-6.19,4.73-10.51,5.25    c-3.78,0.53-7.89,0-11.56-1.78c-3.36-1.58-6.51-4.2-8.4-7.89c-0.64-1.15-0.95-2-1.37-3.15c-0.31-0.95-0.52-2.1-0.73-3.47    l10.62-1.47c0.11,0.74,0.32,1.27,0.43,1.58c0.09,0.31,0.2,0.84,0.52,1.37c0.95,1.58,2.1,2.73,3.57,3.36    c1.78,0.84,3.78,1.16,5.57,0.84c1.69-0.31,2.94-0.95,4.1-2.1c1.05-1.05,1.68-2.42,1.89-4.1c0-1.15-0.11-2.1-0.52-3.04    c-0.43-0.95-1.05-2-2.32-2.74c-0.63-0.73-1.47-1.05-2.21-1.37c-1.15-0.42-2.09-0.73-3.25-1.05c-1.59-0.31-3.05-0.84-4.42-1.37    c-1.78-0.63-3.36-1.68-5.03-2.94c-2.32-1.89-3.78-3.89-4.94-6.31c-1.16-2.62-1.68-5.25-1.48-7.88c0.32-3.68,2-7.25,4.64-10.09    c2.52-2.52,5.78-4.42,9.87-4.94c3.68-0.53,7.47,0.11,10.83,1.68c3.26,1.57,5.89,3.99,7.89,7.46L466.64,369.85z M466.64,369.85    l9.46-5.15L466.64,369.85z"
   id="path928" />
		<path
   class="st2"
   d="M482.36,355.45h33.42v10.72h-11.56v48.45h-10.72v-48.45h-11.14V355.45z M482.36,355.45v10.72V355.45z"
   id="path930" />
		<path
   class="st2"
   d="M531.21,379.93h15.97v10.72h-15.97v13.14h21.44v10.82h-32.17v-59.28h32.17v10.72h-21.44V379.93z     M531.21,366.06v13.87V366.06z"
   id="path932" />
	</g>
</g>
</svg>
